# xmcd CD database file
#
# Track frame offsets:
#	183
#	13423
#	25658
#	35930
#	51165
#	63583
#	70628
#	81235
#	90698
#	100395
#	114660
#	131108
#	140558
#	152340
#	170355
#	182320
#	194040
#	206863
#	215565
#	229220
#	245020
#	259860
#	272340
#	285243
#
# Disc length: 3936 seconds
#
# Revision: 0
# Processed by: cddbd v1.5.2PL0 Copyright (c) Steve Scherf et al.
# Submitted via: CDex 1.70beta2
#
DISCID=670f5e18
DTITLE=Natan Abshire featuring The Balfa Brothers - Pine Grove Blues and The Good Times Are Killing Me
DYEAR=1991
DGENRE=Cajun Zydeco
TTITLE0=Pine grove blues
TTITLE1=La valse de holly beach
TTITLE2=Games people play
TTITLE3=Service blues
TTITLE4=A musician's life
TTITLE5=Fee-fee pon-cho
TTITLE6=Lemonade song
TTITLE7=La valse de bayou teche
TTITLE8=Sur le courtableau
TTITLE9=I don't hurt anymore
TTITLE10=Phil's waltz
TTITLE11=Shamrock
TTITLE12=Choupique two step
TTITLE13=Tracks of my buggy
TTITLE14=Nathan's lafayette two step
TTITLE15=Dying in misery
TTITLE16=Tramp sur la rue
TTITLE17=Partie a grand basile
TTITLE18=J'ai etais au balle
TTITLE19=Valse de Kaplan
TTITLE20=If you don't love me
TTITLE21=Offshore blues
TTITLE22=Let me hold your hand
TTITLE23=La noce a Rosalie
EXTD=YEAR: 1991
EXTT0=
EXTT1=
EXTT2=
EXTT3=
EXTT4=
EXTT5=
EXTT6=
EXTT7=
EXTT8=
EXTT9=
EXTT10=
EXTT11=
EXTT12=
EXTT13=
EXTT14=
EXTT15=
EXTT16=
EXTT17=
EXTT18=
EXTT19=
EXTT20=
EXTT21=
EXTT22=
EXTT23=
PLAYORDER=
